<svg width="42" height="36" viewBox="0 0 42 36" fill="none" xmlns="http://www.w3.org/2000/svg">
<path fill-rule="evenodd" clip-rule="evenodd" d="M42 5.62256C35.7093 8.74622 32.5641 12.4165 32.5641 16.6334C35.2453 16.9458 37.4625 18.0521 39.2156 19.9523C40.9688 21.8525 41.8453 24.052 41.8453 26.551C41.8453 29.2061 40.9945 31.4447 39.293 33.2668C37.5914 35.0889 35.4516 36 32.8734 36C29.9859 36 27.4852 34.8156 25.3711 32.4469C23.257 30.0781 22.2 27.2018 22.2 23.8178C22.2 13.6659 27.8203 5.72671 39.0609 0L42 5.62256ZM19.8 5.62256C13.4578 8.74622 10.2867 12.4165 10.2867 16.6334C13.0195 16.9458 15.2625 18.0521 17.0156 19.9523C18.7688 21.8525 19.6453 24.052 19.6453 26.551C19.6453 29.2061 18.7817 31.4447 17.0543 33.2668C15.3269 35.0889 13.1742 36 10.5961 36C7.70858 36 5.22071 34.8156 3.13242 32.4469C1.04413 30.0781 0 27.2018 0 23.8178C0 13.6659 5.59448 5.72671 16.7836 0L19.8 5.62256Z" fill="#99F6E4"/>
</svg>
