<svg width="313" height="315" viewBox="0 0 313 315" fill="none" xmlns="http://www.w3.org/2000/svg">
<path d="M82.5647 57.2359L82.6348 62.2303C83.142 98.39 122.251 120.752 153.671 102.847L158.186 100.274C187.719 83.4452 224.448 104.625 224.676 138.615L224.756 150.502C224.92 175.096 249.182 192.262 272.429 184.234V184.234" stroke="#99F6E4" stroke-width="0.653416"/>
<path d="M80.9075 60.107L80.9775 65.1014C81.4848 101.261 120.594 123.623 152.014 105.718L156.529 103.145C186.062 86.3163 222.791 107.496 223.019 141.486L223.098 153.373C223.263 177.967 247.525 195.134 270.772 187.105V187.105" stroke="#99F6E4" stroke-width="0.653416"/>
<path d="M79.2498 62.9783L79.3198 67.9727C79.827 104.132 118.936 126.494 150.356 108.59L154.871 106.017C184.404 89.1876 221.133 110.367 221.361 144.358L221.441 156.245C221.605 180.838 245.867 198.005 269.114 189.976V189.976" stroke="#99F6E4" stroke-width="0.653416"/>
<path d="M77.5921 65.8492L77.6621 70.8435C78.1693 107.003 117.278 129.365 148.698 111.461L153.214 108.887C182.746 92.0585 219.476 113.238 219.703 147.229L219.783 159.116C219.948 183.709 244.21 200.876 267.456 192.847V192.847" stroke="#99F6E4" stroke-width="0.653416"/>
<path d="M75.9343 68.7205L76.0044 73.7149C76.5116 109.875 115.621 132.236 147.041 114.332L151.556 111.759C181.089 94.9298 217.818 116.11 218.046 150.1L218.125 161.987C218.29 186.58 242.552 203.747 265.799 195.719V195.719" stroke="#99F6E4" stroke-width="0.653416"/>
<path d="M74.2766 71.5916L74.3467 76.586C74.8539 112.746 113.963 135.107 145.383 117.203L149.898 114.63C179.431 97.8009 216.16 118.981 216.388 152.971L216.467 164.858C216.632 189.451 240.894 206.618 264.141 198.59V198.59" stroke="#99F6E4" stroke-width="0.653416"/>
<path d="M72.6189 74.4627L72.689 79.4571C73.1962 115.617 112.305 137.978 143.725 120.074L148.241 117.501C177.773 100.672 214.502 121.852 214.73 155.842L214.81 167.729C214.974 192.323 239.237 209.489 262.483 201.461V201.461" stroke="#99F6E4" stroke-width="0.653416"/>
<path d="M70.9617 77.3338L71.0317 82.3282C71.539 118.488 110.648 140.85 142.068 122.945L146.583 120.372C176.116 103.543 212.845 124.723 213.073 158.713L213.152 170.6C213.317 195.194 237.579 212.36 260.826 204.332V204.332" stroke="#99F6E4" stroke-width="0.653416"/>
<path d="M69.3035 80.2049L69.3735 85.1993C69.8808 121.359 108.99 143.721 140.41 125.816L144.925 123.243C174.458 106.414 211.187 127.594 211.415 161.584L211.494 173.471C211.659 198.065 235.921 215.231 259.168 207.203V207.203" stroke="#99F6E4" stroke-width="0.653416"/>
<path d="M67.6463 83.076L67.7163 88.0704C68.2235 124.23 107.332 146.592 138.752 128.687L143.268 126.114C172.801 109.285 209.53 130.465 209.757 164.455L209.837 176.342C210.002 200.936 234.264 218.103 257.51 210.074V210.074" stroke="#99F6E4" stroke-width="0.653416"/>
<path d="M65.9885 85.9471L66.0586 90.9414C66.5658 127.101 105.675 149.463 137.095 131.558L141.61 128.985C171.143 112.156 207.872 133.336 208.1 167.327L208.179 179.214C208.344 203.807 232.606 220.974 255.853 212.945V212.945" stroke="#99F6E4" stroke-width="0.653416"/>
<path d="M64.3308 88.8182L64.4009 93.8125C64.9081 129.972 104.017 152.334 135.437 134.43L139.952 131.856C169.485 115.027 206.214 136.207 206.442 170.198L206.522 182.085C206.686 206.678 230.948 223.845 254.195 215.816V215.816" stroke="#99F6E4" stroke-width="0.653416"/>
<path d="M62.6736 91.6893L62.7437 96.6836C63.2509 132.843 102.36 155.205 133.78 137.301L138.295 134.728C167.828 117.899 204.557 139.078 204.785 173.069L204.864 184.956C205.029 209.549 229.291 226.716 252.538 218.687V218.687" stroke="#99F6E4" stroke-width="0.653416"/>
<path d="M61.0159 94.5606L61.0859 99.555C61.5932 135.715 100.702 158.076 132.122 140.172L136.638 137.599C166.17 120.77 202.899 141.95 203.127 175.94L203.207 187.827C203.371 212.42 227.634 229.587 250.88 221.559V221.559" stroke="#99F6E4" stroke-width="0.653416"/>
<path d="M59.3582 97.4317L59.4282 102.426C59.9354 138.586 99.0443 160.947 130.464 143.043L134.98 140.47C164.513 123.641 201.242 144.821 201.469 178.811L201.549 190.698C201.714 215.292 225.976 232.458 249.222 224.43V224.43" stroke="#99F6E4" stroke-width="0.653416"/>
<path d="M57.7395 100.235L57.8096 105.229C58.3168 141.389 97.4257 163.751 128.846 145.846L133.361 143.273C162.894 126.444 199.623 147.624 199.851 181.614L199.93 193.501C200.095 218.095 224.357 235.261 247.604 227.233V227.233" stroke="#99F6E4" stroke-width="0.653416"/>
<path d="M56.1213 103.038L56.1914 108.033C56.6986 144.192 95.8075 166.554 127.228 148.65L131.743 146.076C161.276 129.247 198.005 150.427 198.233 184.418L198.312 196.305C198.477 220.898 222.739 238.065 245.986 230.036V230.036" stroke="#99F6E4" stroke-width="0.653416"/>
<path d="M54.5027 105.841L54.5728 110.835C55.08 146.995 94.1889 169.357 125.609 151.452L130.124 148.879C159.657 132.05 196.386 153.23 196.614 187.221L196.694 199.108C196.858 223.701 221.12 240.868 244.367 232.839V232.839" stroke="#99F6E4" stroke-width="0.653416"/>
<path d="M52.8845 108.644L52.9546 113.639C53.4618 149.798 92.5707 172.16 123.991 154.256L128.506 151.683C158.039 134.854 194.768 156.033 194.996 190.024L195.075 201.911C195.24 226.504 219.502 243.671 242.749 235.642V235.642" stroke="#99F6E4" stroke-width="0.653416"/>
<path d="M51.2659 111.448L51.3359 116.442C51.8432 152.602 90.9521 174.963 122.372 157.059L126.888 154.486C156.42 137.657 193.149 158.837 193.377 192.827L193.457 204.714C193.621 229.307 217.884 246.474 241.13 238.446V238.446" stroke="#99F6E4" stroke-width="0.653416"/>
<path d="M49.6477 114.251L49.7178 119.245C50.225 155.405 89.3339 177.767 120.754 159.862L125.269 157.289C154.802 140.46 191.531 161.64 191.759 195.63L191.839 207.517C192.003 232.111 216.265 249.277 239.512 241.249V241.249" stroke="#99F6E4" stroke-width="0.653416"/>
<path d="M48.0291 117.054L48.0991 122.048C48.6063 158.208 87.7152 180.57 119.135 162.665L123.651 160.092C153.183 143.263 189.913 164.443 190.14 198.433L190.22 210.32C190.385 234.914 214.647 252.08 237.893 244.052V244.052" stroke="#99F6E4" stroke-width="0.653416"/>
<path d="M46.4109 119.857L46.481 124.851C46.9882 161.011 86.0971 183.373 117.517 165.468L122.033 162.895C151.565 146.066 188.294 167.246 188.522 201.236L188.602 213.123C188.766 237.717 213.029 254.884 236.275 246.855V246.855" stroke="#99F6E4" stroke-width="0.653416"/>
<path d="M44.7922 122.66L44.8623 127.655C45.3695 163.814 84.4784 186.176 115.898 168.272L120.414 165.698C149.947 148.87 186.676 170.049 186.903 204.04L186.983 215.927C187.148 240.52 211.41 257.687 234.656 249.658V249.658" stroke="#99F6E4" stroke-width="0.653416"/>
<path d="M43.1741 125.463L43.2441 130.458C43.7514 166.618 82.8603 188.979 114.28 171.075L118.796 168.502C148.328 151.673 185.058 172.853 185.285 206.843L185.365 218.73C185.53 243.323 209.792 260.49 233.038 252.461V252.461" stroke="#99F6E4" stroke-width="0.653416"/>
<path d="M41.5554 128.266L41.6255 133.261C42.1327 169.421 81.2416 191.782 112.662 173.878L117.177 171.305C146.71 154.476 183.439 175.656 183.667 209.646L183.746 221.533C183.911 246.126 208.173 263.293 231.42 255.264V255.264" stroke="#99F6E4" stroke-width="0.653416"/>
<path d="M39.9373 131.07L40.0073 136.064C40.5145 172.224 79.6235 194.585 111.043 176.681L115.559 174.108C145.092 157.279 181.821 178.459 182.048 212.449L182.128 224.336C182.293 248.929 206.555 266.096 229.801 258.068V258.068" stroke="#99F6E4" stroke-width="0.653416"/>
<path d="M38.3186 133.873L38.3887 138.867C38.8959 175.027 78.0048 197.389 109.425 179.484L113.94 176.911C143.473 160.082 180.202 181.262 180.43 215.252L180.509 227.139C180.674 251.733 204.936 268.899 228.183 260.871V260.871" stroke="#99F6E4" stroke-width="0.653416"/>
<path d="M36.7005 136.676L36.7705 141.67C37.2777 177.83 76.3866 200.192 107.807 182.287L112.322 179.714C141.855 162.885 178.584 184.065 178.812 218.056L178.891 229.943C179.056 254.536 203.318 271.703 226.565 263.674V263.674" stroke="#99F6E4" stroke-width="0.653416"/>
</svg>
